PathFileType	4	(X/Y/Z)	 control3min.trc
DataRate	CameraRate	NumFrames	NumMarkers	Units	OrigDataRate	OrigDataStartFrame	OrigNumFrames
200	200	9	43	m	200	876	1000
Frame#	Time	C7			LSH			RSH			MAN			RASI			LASI			HIPR			HIPL			RPSI			LPSI			COX			RTHI1			RTHI2			RTHI3			RTHI4			RLKN			RMKN			RSHA1			RSHA2			RSHA3			RSHA4			RLMAL			RMMAL			RHEEL			RMET5			RMET1			RTOE			LTHI1			LTHI2			LTHI3			LTHI4			LLKN			LMKN			LSHA1			LSHA2			LSHA3			LSHA4			LLMAL			LMMAL			LHEEL			LMET5			LMET1			LTOE			
		X1	Y1	Z1	X2	Y2	Z2	X3	Y3	Z3	X4	Y4	Z4	X5	Y5	Z5	X6	Y6	Z6	X7	Y7	Z7	X8	Y8	Z8	X9	Y9	Z9	X10	Y10	Z10	X11	Y11	Z11	X12	Y12	Z12	X13	Y13	Z13	X14	Y14	Z14	X15	Y15	Z15	X16	Y16	Z16	X17	Y17	Z17	X18	Y18	Z18	X19	Y19	Z19	X20	Y20	Z20	X21	Y21	Z21	X22	Y22	Z22	X23	Y23	Z23	X24	Y24	Z24	X25	Y25	Z25	X26	Y26	Z26	X27	Y27	Z27	X28	Y28	Z28	X29	Y29	Z29	X30	Y30	Z30	X31	Y31	Z31	X32	Y32	Z32	X33	Y33	Z33	X34	Y34	Z34	X35	Y35	Z35	X36	Y36	Z36	X37	Y37	Z37	X38	Y38	Z38	X39	Y39	Z39	X40	Y40	Z40	X41	Y41	Z41	X42	Y42	Z42	X43	Y43	Z43	
876	4.3800	-0.252871	1.448418	-0.522463	-0.211129	1.455925	-0.709811	-0.168397	1.430786	-0.351586	-0.121200	1.377991	-0.529883	-0.146945	0.962040	-0.425768	-0.146443	0.959066	-0.646886	-0.213234	1.002780	-0.393153	-0.207850	1.002004	-0.677074	-0.294690	0.998868	-0.475490	-0.298051	0.991832	-0.583678	-0.301280	0.991208	-0.531702	-0.208930	0.748576	-0.345656	-0.187902	0.692519	-0.342438	-0.130045	0.708683	-0.366317	-0.143577	0.768743	-0.372271	-0.184945	0.444382	-0.360247	-0.190948	0.433052	-0.459973	-0.307552	0.290763	-0.352179	-0.325406	0.255399	-0.361309	-0.274283	0.231943	-0.371203	-0.252718	0.268479	-0.365741	-0.362748	0.120264	-0.383395	-0.344035	0.131689	-0.461648	-0.415524	0.109658	-0.430690	-0.275182	0.036870	-0.355507	-0.221868	0.041160	-0.426170	-0.201608	0.036369	-0.418239	-0.250217	0.748428	-0.721711	-0.233102	0.690067	-0.732231	-0.169073	0.702937	-0.733524	-0.178736	0.761325	-0.724718	-0.192415	0.457796	-0.736758	-0.196053	0.440601	-0.628963	-0.316851	0.275529	-0.750838	-0.327101	0.231842	-0.745175	-0.274870	0.217764	-0.743187	-0.258054	0.254795	-0.747000	-0.335232	0.112543	-0.742546	-0.337729	0.120973	-0.662728	-0.397082	0.101276	-0.706435	-0.236954	0.038084	-0.747670	-0.211578	0.047192	-0.666585	-0.183040	0.037702	-0.670378	
877	4.3850	-0.252668	1.444580	-0.522564	-0.210642	1.452024	-0.710060	-0.168236	1.426614	-0.351661	-0.120966	1.373372	-0.529921	-0.147287	0.957787	-0.425909	-0.146999	0.954252	-0.647322	-0.213797	0.998008	-0.392843	-0.208524	0.996503	-0.677693	-0.295449	0.994098	-0.475600	-0.298948	0.986895	-0.583819	-0.302150	0.986366	-0.531842	-0.208625	0.745192	-0.345559	-0.187484	0.689192	-0.342202	-0.129616	0.705436	-0.365995	-0.143265	0.765439	-0.372097	-0.183596	0.440937	-0.360010	-0.190109	0.429821	-0.459683	-0.306813	0.287799	-0.351669	-0.325101	0.252600	-0.361044	-0.274125	0.228855	-0.371433	-0.252268	0.265244	-0.365903	-0.363627	0.118050	-0.383427	-0.345308	0.129695	-0.461965	-0.416674	0.107425	-0.430573	-0.275549	0.036521	-0.355238	-0.222104	0.041162	-0.426249	-0.201746	0.036288	-0.418202	-0.250327	0.743908	-0.722097	-0.232742	0.685696	-0.732694	-0.168857	0.699117	-0.734136	-0.178980	0.757416	-0.725292	-0.190784	0.453971	-0.737542	-0.194202	0.436685	-0.629867	-0.316284	0.272417	-0.751198	-0.326956	0.228863	-0.745367	-0.274938	0.214335	-0.743038	-0.257674	0.251093	-0.746961	-0.336159	0.109968	-0.742183	-0.338710	0.118680	-0.662176	-0.398168	0.098760	-0.705963	-0.237349	0.037909	-0.747846	-0.211720	0.047189	-0.666544	-0.182972	0.037635	-0.670368	
878	4.3900	-0.252445	1.441125	-0.522627	-0.210219	1.448398	-0.710273	-0.168112	1.422653	-0.351690	-0.120750	1.369128	-0.529939	-0.147604	0.953864	-0.426060	-0.147559	0.949696	-0.647758	-0.214363	0.993534	-0.392479	-0.209200	0.991165	-0.678330	-0.296212	0.989668	-0.475732	-0.299865	0.982232	-0.583962	-0.303022	0.981851	-0.531991	-0.208383	0.742187	-0.345452	-0.187133	0.686240	-0.341974	-0.129246	0.702564	-0.365656	-0.142998	0.762525	-0.371880	-0.182337	0.437888	-0.359816	-0.189248	0.426990	-0.459469	-0.306091	0.285217	-0.351313	-0.324772	0.250170	-0.360917	-0.273924	0.226139	-0.371692	-0.251794	0.262409	-0.366105	-0.364362	0.116138	-0.383537	-0.346347	0.127960	-0.462306	-0.417587	0.105504	-0.430620	-0.275853	0.036252	-0.355066	-0.222314	0.041166	-0.426342	-0.201859	0.036235	-0.418170	-0.250407	0.739893	-0.722436	-0.232386	0.681824	-0.733107	-0.168636	0.695755	-0.734703	-0.179184	0.753977	-0.725827	-0.189143	0.450554	-0.738247	-0.192415	0.433224	-0.630665	-0.315680	0.269728	-0.751505	-0.326744	0.226301	-0.745544	-0.274928	0.211389	-0.742952	-0.257263	0.247869	-0.746945	-0.336874	0.107717	-0.741883	-0.339554	0.116695	-0.661744	-0.399058	0.096584	-0.705564	-0.237700	0.037774	-0.748028	-0.211856	0.047191	-0.666526	-0.182934	0.037579	-0.670365	
879	4.3950	-0.252193	1.438104	-0.522651	-0.209871	1.445088	-0.710449	-0.168029	1.418976	-0.351649	-0.120553	1.365331	-0.529944	-0.147890	0.950340	-0.426215	-0.148110	0.945488	-0.648185	-0.214964	0.989455	-0.392085	-0.209896	0.986092	-0.678981	-0.296947	0.985702	-0.475912	-0.300765	0.977952	-0.584110	-0.303843	0.977798	-0.532158	-0.208217	0.739582	-0.345341	-0.186856	0.683684	-0.341766	-0.128944	0.700107	-0.365297	-0.142802	0.760027	-0.371615	-0.181171	0.435260	-0.359681	-0.188342	0.424570	-0.459327	-0.305419	0.283040	-0.351129	-0.324437	0.248134	-0.360925	-0.273704	0.223821	-0.371967	-0.251328	0.259974	-0.366334	-0.364945	0.114569	-0.383730	-0.347126	0.126505	-0.462685	-0.418293	0.103912	-0.430839	-0.276080	0.036055	-0.354949	-0.222459	0.041178	-0.426435	-0.201915	0.036202	-0.418132	-0.250447	0.736470	-0.722721	-0.232051	0.678527	-0.733456	-0.168422	0.692896	-0.735199	-0.179333	0.751058	-0.726292	-0.187536	0.447611	-0.738856	-0.190742	0.430275	-0.631334	-0.315073	0.267528	-0.751771	-0.326490	0.224203	-0.745719	-0.274861	0.208989	-0.742962	-0.256833	0.245220	-0.746993	-0.337389	0.105831	-0.741669	-0.340218	0.115054	-0.661434	-0.399763	0.094759	-0.705268	-0.237971	0.037680	-0.748210	-0.211981	0.047205	-0.666535	-0.182900	0.037551	-0.670379	
880	4.4000	-0.251909	1.435538	-0.522637	-0.209605	1.442138	-0.710590	-0.167971	1.415614	-0.351545	-0.120382	1.362045	-0.529950	-0.148137	0.947276	-0.426366	-0.148630	0.941717	-0.648590	-0.215596	0.985872	-0.391699	-0.210638	0.981397	-0.679631	-0.297609	0.982320	-0.476146	-0.301598	0.974177	-0.584276	-0.304567	0.974333	-0.532352	-0.208137	0.737382	-0.345240	-0.186662	0.681538	-0.341589	-0.128708	0.698081	-0.364917	-0.142681	0.757968	-0.371305	-0.180090	0.433066	-0.359598	-0.187365	0.422567	-0.459246	-0.304764	0.281306	-0.351042	-0.324065	0.246503	-0.361000	-0.273470	0.221933	-0.372255	-0.250873	0.257983	-0.366569	-0.365358	0.113323	-0.383974	-0.347629	0.125333	-0.463090	-0.418793	0.102665	-0.431205	-0.276251	0.035916	-0.354929	-0.222528	0.041206	-0.426510	-0.201925	0.036191	-0.418085	-0.250440	0.733672	-0.722953	-0.231747	0.675826	-0.733746	-0.168211	0.690558	-0.735604	-0.179412	0.748671	-0.726669	-0.185995	0.445186	-0.739367	-0.189195	0.427863	-0.631868	-0.314465	0.265817	-0.752002	-0.326190	0.222597	-0.745897	-0.274711	0.207162	-0.743076	-0.256377	0.243159	-0.747116	-0.337731	0.104327	-0.741548	-0.340691	0.113767	-0.661242	-0.400293	0.093313	-0.705104	-0.238159	0.037614	-0.748407	-0.212067	0.047232	-0.666560	-0.182862	0.037554	-0.670405	
881	4.4050	-0.251610	1.433439	-0.522590	-0.209430	1.439604	-0.710705	-0.167954	1.412660	-0.351371	-0.120237	1.359309	-0.529960	-0.148336	0.944722	-0.426515	-0.149094	0.938468	-0.648957	-0.216231	0.982893	-0.391365	-0.211414	0.977228	-0.680253	-0.298153	0.979623	-0.476430	-0.302307	0.971023	-0.584449	-0.305153	0.971560	-0.532579	-0.208138	0.735600	-0.345159	-0.186543	0.679815	-0.341449	-0.128527	0.696504	-0.364506	-0.142626	0.756362	-0.370954	-0.179078	0.431330	-0.359552	-0.186329	0.420987	-0.459219	-0.304167	0.280006	-0.351094	-0.323687	0.245287	-0.361167	-0.273226	0.220478	-0.372551	-0.250444	0.256443	-0.366799	-0.365597	0.112402	-0.384282	-0.347872	0.124438	-0.463518	-0.419107	0.101760	-0.431674	-0.276367	0.035847	-0.354979	-0.222534	0.041219	-0.426572	-0.201889	0.036186	-0.418032	-0.250387	0.731469	-0.723139	-0.231463	0.673710	-0.733983	-0.168000	0.688716	-0.735912	-0.179425	0.746794	-0.726954	-0.184550	0.443291	-0.739774	-0.187797	0.426002	-0.632267	-0.313838	0.264587	-0.752222	-0.325835	0.221453	-0.746085	-0.274483	0.205845	-0.743277	-0.255902	0.241634	-0.747284	-0.337917	0.103214	-0.741520	-0.340995	0.112852	-0.661166	-0.400650	0.092244	-0.705076	-0.238263	0.037558	-0.748567	-0.212132	0.047249	-0.666580	-0.182833	0.037562	-0.670417	
882	4.4100	-0.251314	1.431811	-0.522510	-0.209361	1.437528	-0.710792	-0.167984	1.410181	-0.351112	-0.120120	1.357148	-0.529974	-0.148473	0.942716	-0.426662	-0.149472	0.935815	-0.649270	-0.216825	0.980614	-0.391118	-0.212203	0.973745	-0.680826	-0.298546	0.977677	-0.476741	-0.302846	0.968595	-0.584631	-0.305570	0.969549	-0.532825	-0.208198	0.734260	-0.345105	-0.186484	0.678530	-0.341350	-0.128389	0.695382	-0.364073	-0.142618	0.755214	-0.370574	-0.178154	0.430063	-0.359533	-0.185275	0.419830	-0.459235	-0.303640	0.279122	-0.351263	-0.323329	0.244470	-0.361416	-0.272976	0.219464	-0.372841	-0.250046	0.255361	-0.367018	-0.365672	0.111815	-0.384623	-0.347888	0.123829	-0.463944	-0.419229	0.101193	-0.432208	-0.276437	0.035822	-0.355072	-0.222497	0.041218	-0.426619	-0.201815	0.036187	-0.417978	-0.250296	0.729815	-0.723292	-0.231184	0.672130	-0.734182	-0.167776	0.687346	-0.736125	-0.179383	0.745398	-0.727149	-0.183222	0.441911	-0.740085	-0.186545	0.424681	-0.632535	-0.313188	0.263800	-0.752455	-0.325424	0.220718	-0.746295	-0.274177	0.204973	-0.743531	-0.255387	0.240590	-0.747477	-0.337964	0.102481	-0.741586	-0.341133	0.112285	-0.661192	-0.400841	0.091558	-0.705172	-0.238299	0.037505	-0.748721	-0.212179	0.047262	-0.666604	-0.182815	0.037572	-0.670418	
883	4.4150	-0.251041	1.430652	-0.522404	-0.209394	1.435943	-0.710852	-0.168061	1.408232	-0.350765	-0.120026	1.355567	-0.529993	-0.148529	0.941286	-0.426812	-0.149734	0.933808	-0.649517	-0.217304	0.979101	-0.390989	-0.212944	0.971103	-0.681327	-0.298768	0.976494	-0.477045	-0.303176	0.966963	-0.584817	-0.305810	0.968293	-0.533083	-0.208291	0.733368	-0.345085	-0.186470	0.677691	-0.341295	-0.128281	0.694714	-0.363637	-0.142633	0.754513	-0.370187	-0.177342	0.429246	-0.359548	-0.184259	0.419087	-0.459285	-0.303194	0.278638	-0.351516	-0.322989	0.244019	-0.361726	-0.272715	0.218868	-0.373109	-0.249702	0.254691	-0.367225	-0.365599	0.111508	-0.384974	-0.347720	0.123497	-0.464363	-0.419212	0.100990	-0.432794	-0.276467	0.035836	-0.355192	-0.222403	0.041212	-0.426642	-0.201715	0.036193	-0.417917	-0.250170	0.728670	-0.723428	-0.230902	0.671044	-0.734345	-0.167534	0.686431	-0.736249	-0.179297	0.744453	-0.727259	-0.182027	0.441014	-0.740298	-0.185444	0.423858	-0.632686	-0.312514	0.263385	-0.752702	-0.324947	0.220334	-0.746531	-0.273795	0.204493	-0.743808	-0.254823	0.239976	-0.747674	-0.337869	0.102111	-0.741735	-0.341129	0.112026	-0.661314	-0.400877	0.091233	-0.705384	-0.238252	0.037457	-0.748873	-0.212201	0.047274	-0.666631	-0.182794	0.037581	-0.670405	
884	4.4200	-0.250811	1.429960	-0.522283	-0.209527	1.434874	-0.710888	-0.168155	1.406808	-0.350403	-0.119955	1.354567	-0.530015	-0.148489	0.940444	-0.426973	-0.149855	0.932479	-0.649687	-0.217574	0.978380	-0.390990	-0.213546	0.969422	-0.681716	-0.298812	0.976031	-0.477299	-0.303283	0.966152	-0.584999	-0.305889	0.967738	-0.533336	-0.208397	0.732931	-0.345091	-0.186494	0.677294	-0.341278	-0.128195	0.694479	-0.363218	-0.142648	0.754249	-0.369817	-0.176677	0.428878	-0.359587	-0.183341	0.418763	-0.459354	-0.302825	0.278528	-0.351807	-0.322684	0.243936	-0.362054	-0.272438	0.218685	-0.373336	-0.249378	0.254464	-0.367397	-0.365412	0.111440	-0.385299	-0.347407	0.123428	-0.464735	-0.419032	0.101074	-0.433327	-0.276458	0.035884	-0.355348	-0.222268	0.041204	-0.426662	-0.201590	0.036215	-0.417855	-0.250013	0.728007	-0.723551	-0.230605	0.670426	-0.734479	-0.167269	0.685954	-0.736291	-0.179171	0.743943	-0.727299	-0.180977	0.440577	-0.740409	-0.184500	0.423503	-0.632738	-0.311829	0.263290	-0.752968	-0.324410	0.220267	-0.746790	-0.273345	0.204355	-0.744089	-0.254224	0.239715	-0.747846	-0.337642	0.102060	-0.741957	-0.341010	0.112049	-0.661524	-0.400768	0.091251	-0.705710	-0.238140	0.037420	-0.749015	-0.212173	0.047269	-0.666629	-0.182752	0.037567	-0.670315	
